<svg height='100px' width='100px'  fill="#000000" xmlns="http://www.w3.org/2000/svg" xmlns:xlink="http://www.w3.org/1999/xlink" version="1.1" x="0px" y="0px" viewBox="0 0 100 100" enable-background="new 0 0 100 100" xml:space="preserve"><path fill-rule="evenodd" clip-rule="evenodd" d="M72.281,24.277c-0.633-0.733-1.333-1.35-2.1-1.85  c-0.867-0.634-2.066-1.333-3.601-2.101c-2.1-1.066-3.35-1.699-3.75-1.899c-1.1-0.601-2.433-1.034-4-1.3  c-0.933-0.134-2.333-0.234-4.199-0.301c-6-0.266-11.434-0.016-16.301,0.75c-3.966,0.601-6.916,1.117-8.85,1.551  c-3.2,0.732-6.017,1.649-8.45,2.75c-0.399,0.166-1.116,0.449-2.149,0.85c-0.934,0.334-1.65,0.617-2.15,0.85  c-2.533,1.301-4.483,3.551-5.85,6.75c-0.967,2.234-1.717,5.084-2.25,8.551c-0.5,3.899-0.934,6.85-1.301,8.85  c0.867-0.5,1.601-1.25,2.2-2.25c0.3-0.467,0.467-0.717,0.5-0.75c0.233-0.233,0.5-0.233,0.8,0c0.267,0.2,0.301,0.45,0.101,0.75  c-0.167,0.166-0.4,0.4-0.7,0.7l-2.25,2.399c-0.667,0.667-1,1.316-1,1.95c0,0.5-0.083,1.616-0.25,3.351  c-0.1,1.333-0.134,2.434-0.1,3.3c0.366,5.1,0.55,7.816,0.55,8.149c0.166,3.101,0.233,5.834,0.2,8.2  c-0.034,0.534,0.017,1.217,0.149,2.05c0.167,1,0.283,1.783,0.351,2.351l13.449-10.95c-0.233,0.666-0.583,1.233-1.05,1.7  c-0.066,0.1-0.467,0.483-1.2,1.149c-2.666,2.434-5.066,4.351-7.199,5.75c-0.367,0.234-1.417,1.084-3.15,2.551  c-0.866,0.766-0.9,1.583-0.1,2.449c0.933,0.9,1.8,1.4,2.6,1.5c1.9,0.334,3.333,0.566,4.3,0.7c2.233,0.333,3.816-0.167,4.75-1.5  c0.233-0.3,0.417-0.45,0.55-0.45c0.867,0.033,1.384-0.25,1.551-0.85c0.133-0.334,0.183-0.9,0.149-1.7c0.033-0.2-0.05-0.8-0.25-1.8  c-0.233-1.533-0.184-2.6,0.15-3.2c0.366-0.566,1.283-1.134,2.75-1.7c1.6-0.633,3.934-1.05,7-1.25c0.733-0.1,2.566-0.184,5.5-0.25  c2.233-0.033,4.066-0.149,5.5-0.35c0.533-0.1,0.85-0.1,0.95,0c0.833,0.666,1.666,0.883,2.5,0.65c0.533-0.2,1.25-0.667,2.149-1.4  l0.601-0.15c0.033,0.467-0.15,0.834-0.551,1.101c-0.166,0.167-0.483,0.384-0.949,0.649c-1.2,0.801-1.617,1.816-1.25,3.051  c0.233,0.699,0.166,1.699-0.2,3c0.934-0.434,1.899-1.217,2.899-2.351c1.134-1.267,1.967-2.083,2.5-2.45  c-0.133,0.7-0.5,1.384-1.1,2.051c-0.333,0.434-0.85,1-1.55,1.699c-0.3,0.367-0.816,0.834-1.55,1.4c-0.9,0.867-1.284,1.5-1.15,1.9  c0.134,0.434,0.833,0.833,2.1,1.199l-0.05-0.05c-0.267-0.767,0.066-1.45,1-2.05c0.9-0.633,1.584-1.117,2.05-1.45  c0.801-0.566,1.434-1.116,1.9-1.649c-0.4,0.967-1.134,1.916-2.2,2.85c-0.6,0.533-1.517,1.3-2.75,2.3  c1.134,0.833,2.351,0.767,3.65-0.2c0.366-0.266,0.783-0.666,1.25-1.199c0.666-0.768,1.1-1.25,1.3-1.45  c0.233,0.7,0.15,1.316-0.25,1.85c-0.2,0.267-0.533,0.65-1,1.15c1.667,0.3,2.85,0.216,3.55-0.25c0.667-0.467,1.134-1.483,1.4-3.05  l0.2-2.051c0.033-0.566,0.066-1.416,0.1-2.55c0.2-2.066,0.783-3.466,1.75-4.2c0.8-0.6,2.15-0.982,4.05-1.149  c1.667-0.101,2.767,0.116,3.3,0.649c0.567,0.5,0.917,1.617,1.051,3.351v4.25c0.433-0.167,0.949-0.583,1.55-1.25  c0.666-0.667,1.267-1.15,1.8-1.45c-0.5,1-1.15,1.9-1.95,2.7c-0.934,0.899-1.399,1.566-1.399,2c-0.034,0.466,0.399,1.3,1.3,2.5  l5.6-5.851c0.101,0.566,0.017,1.066-0.25,1.5c-0.1,0.167-0.383,0.5-0.85,1l-3.05,3.15c-0.634,0.834-0.667,1.4-0.101,1.7  c0.467,0.366,0.834,0.6,1.101,0.7c0.399,0.199,0.816,0.033,1.25-0.5c0.399-0.467,1.949-2.051,4.649-4.75  c0.267-0.268,0.417-0.417,0.45-0.45c0.233-0.101,0.5-0.083,0.8,0.05c-0.166,0.566-0.55,1.117-1.149,1.65  c-0.934,0.8-1.417,1.232-1.45,1.3c-0.167,0.2-0.601,0.634-1.3,1.3c-0.567,0.6-0.983,1.1-1.25,1.5c1.267,0.8,2.133,1.166,2.6,1.1  c0.566-0.033,1.3-0.566,2.2-1.6c0.267-0.3,0.883-0.834,1.85-1.6c0.767-0.667,1.316-1.268,1.65-1.801c0.133-0.232,0.35-0.232,0.649,0  c0.233,0.301,0.267,0.533,0.101,0.7l-1.45,1.45c-0.267,0.3-0.65,0.7-1.15,1.2c-0.399,0.433-0.583,0.933-0.55,1.5  c1.634,0.433,2.834-0.017,3.601-1.351c0.267-0.434,0.649-0.934,1.149-1.5c0.566-0.633,0.983-1.116,1.25-1.449  c0.267-0.334,0.601-0.367,1-0.101c0.3,0.2,0.283,0.483-0.05,0.851l-2.85,3.25c2.5,0,4.166-1.084,5-3.25  c0.866-2.134,1.366-3.75,1.5-4.851c0.166-0.866,0.433-2.116,0.8-3.75c0.467-1.667,0.75-2.917,0.85-3.75  c0.367-2.6,0.483-5.216,0.351-7.85c-0.067-1.101-0.233-1.817-0.5-2.15c-0.2-0.366-0.65-0.616-1.351-0.75  c-1.233-0.267-2.184-0.267-2.85,0c-0.7,0.233-1.267,0.784-1.7,1.65c-0.8,1.533-1.267,3.667-1.4,6.399c0.034,1.967,0,3.417-0.1,4.351  c-0.134,1.366-0.5,2.35-1.1,2.95c-0.601,0.566-1.567,0.934-2.9,1.1c-0.6,0.066-1.066,0-1.4-0.2c-0.333-0.134-0.699-0.466-1.1-1  c-1.1-1.5-1.667-3.216-1.7-5.149c-0.066-4.268,0.2-8.167,0.8-11.7c0.733-4.333,0.767-8.567,0.101-12.7  c-0.134-1.133-0.233-2.5-0.3-4.1l-0.15-4.101c-0.167-2.433-1.066-4.85-2.7-7.25l-0.5-0.6c-0.267-0.467-0.233-0.851,0.101-1.15  c0.333-0.366,0.699-0.366,1.1,0c1.1,0.9,2.05,2.384,2.85,4.45c0.634,1.7,0.917,3.467,0.851,5.3c-0.066,1.5,0,3.317,0.2,5.45  c0.3,2.434,0.5,4.25,0.6,5.45c0.134,1.6-0.066,4.483-0.6,8.649c-0.434,3.7-0.684,6.033-0.75,7c-0.134,2.634,0.017,4.967,0.449,7  c0.267,1.033,0.417,1.584,0.45,1.65c0.2,0.533,0.367,0.9,0.5,1.1c0.267,0.367,0.667,0.518,1.2,0.45c1.134-0.2,1.8-0.767,2-1.7  c0.4-2,0.566-3.366,0.5-4.1c-0.167-1.4,0.1-3.584,0.8-6.55c0.467-2.034,1.684-3.4,3.65-4.101c2.033-0.766,3.899-0.533,5.6,0.7  c0.4,0.3,0.667,0.717,0.8,1.25c0.134,0.866,0.217,1.517,0.25,1.95c0.134,0.733,0.184,1.35,0.15,1.85  c-0.3,5.967-1.45,12.033-3.45,18.2c-1.1,3.5-3.55,5.417-7.35,5.75c-4.334,0.333-8.033,0.134-11.101-0.6  c-1.767-0.467-3.233-1.483-4.399-3.05c-1.233-1.533-1.816-3.2-1.75-5c0.033-0.934,0.166-2.301,0.399-4.101  c0-0.933-0.133-1.649-0.399-2.149c-0.233-0.467-0.65-0.801-1.25-1c-0.733-0.234-1.55-0.234-2.45,0c-0.9,0.266-1.566,0.666-2,1.199  c-0.767,1.066-1.1,2.101-1,3.101c0.066,0.833,0.033,1.85-0.1,3.05c-0.2,1.334-0.334,2.35-0.4,3.05  c-0.134,1.134-0.733,1.851-1.8,2.15c-4.066,1.167-7.667,1.267-10.8,0.3c-1.167-0.367-1.934-0.85-2.301-1.45  c-0.366-0.566-0.416-1.483-0.149-2.75c0.2-0.899,0.267-2.033,0.2-3.399c-0.233-0.134-0.45-0.051-0.65,0.25  c-0.167,0.3-0.366,0.35-0.6,0.149l-0.15-0.45c0-0.133,0.167-0.416,0.5-0.85c0.233-0.334,0.25-0.633,0.05-0.9  c-0.5-0.633-1.2-0.916-2.1-0.85c-1.7,0-2.717,0.017-3.05,0.05c-0.534,0.067-2.483,0.184-5.851,0.351  c-2.399,0.133-4.333,0.416-5.8,0.85c-1.833,0.5-2.884,0.983-3.15,1.45c-0.3,0.433-0.3,1.533,0,3.3c0.267,1.834,0.051,3.5-0.649,5  c-0.667,1.4-1.717,2.117-3.15,2.15c-3.333,0.166-6.883-0.184-10.649-1.051c-1.101-0.232-1.983-0.833-2.65-1.8  c-0.667-0.899-1.017-2.05-1.05-3.45c-0.134-3.833-0.334-9.616-0.601-17.35c-0.1-0.967-0.199-2.467-0.3-4.5  c-0.066-1.8,0.017-3.334,0.25-4.6c0.167-1.066,0.367-2.667,0.601-4.801c0.267-2.166,0.483-3.783,0.649-4.85  c0.033-0.233,0.233-1.584,0.601-4.05c0.199-1.634,0.466-2.967,0.8-4c0.7-2.2,1.45-4.101,2.25-5.7c1.366-2.867,4.083-5.15,8.149-6.85  c6-2.434,13.684-4.217,23.051-5.351c5.466-0.7,10.233-0.884,14.3-0.55c4.533,0.367,8.233,1.483,11.1,3.35  c2.367,1.4,4.134,2.45,5.3,3.15c0.534,0.367,1,0.75,1.4,1.15c0.333,0.399,0.384,0.783,0.15,1.149  c-0.233,0.267-0.467,0.384-0.7,0.351C72.665,24.628,72.448,24.511,72.281,24.277z M53.632,19.228  c0.133,0.033,0.683,0.117,1.649,0.25c0.733,0.066,1.3,0.316,1.7,0.75c-0.5,0.166-1.1,0.233-1.8,0.2c-1-0.067-1.517-0.101-1.55-0.101  c-0.467,0-0.617-0.232-0.45-0.699C53.248,19.228,53.398,19.095,53.632,19.228z M67.581,38.327c0.334,0.667,0.884,1,1.65,1  c0.566-0.033,1-0.366,1.3-1c0.066-0.166,0.167-0.482,0.3-0.949c0.2-0.367,0.483-0.65,0.851-0.851c0.399,0.8,0.6,1.417,0.6,1.851  c0,0.6-0.3,1.133-0.899,1.6c-1.334,1.033-2.684,1.217-4.051,0.55c-0.5-0.267-0.949-0.767-1.35-1.5  c-0.434-0.733-0.616-1.384-0.55-1.95c0.1-0.6,0.517-1.217,1.25-1.85c0.767-0.633,1.467-0.934,2.1-0.9c0.533,0,0.851,0.217,0.95,0.65  c0.033,0.334-0.217,0.617-0.75,0.85C67.481,36.461,67.015,37.294,67.581,38.327z M39.182,20.527c3.166-0.533,4.833-0.816,5-0.85  c1.934-0.233,3.666-0.284,5.2-0.15c-0.167,0.4-0.4,0.65-0.7,0.75c-0.101,0.034-0.351,0.05-0.75,0.05  c-2.667,0-5.517,0.434-8.55,1.301c-0.601,0.133-0.95,0.05-1.051-0.25C38.132,20.911,38.415,20.628,39.182,20.527z M11.132,51.978  l-2.601,2.4c0.834-1.834,2.483-3.551,4.95-5.15c-0.1,0.6-0.417,1.133-0.95,1.6C12.231,51.095,11.765,51.478,11.132,51.978z   M14.432,55.178l-6.55,6.6c0.666-1.267,1.566-2.533,2.699-3.8c0.601-0.7,1.667-1.8,3.2-3.3L14.432,55.178z M14.781,60.878  c-0.566,0.533-2.616,1.949-6.149,4.25c0.566-0.934,1.733-2.018,3.5-3.25c1.8-1.2,2.983-2.283,3.55-3.25  C15.682,59.527,15.382,60.277,14.781,60.878z M19.182,63.728c-1.066,1.2-2.684,2.533-4.851,4c-2.633,1.767-4.333,3-5.1,3.7  c0.333-0.9,0.983-1.7,1.95-2.4c1.166-0.8,2.033-1.399,2.6-1.8l5.05-4L19.182,63.728z M21.481,77.628  c0.033,0.1-0.033,0.232-0.2,0.399l-4.1,3.95l-0.5-0.45c0.366-0.6,1.033-1.35,2-2.25c1-0.966,1.666-1.716,2-2.25  c0.2-0.1,0.366-0.116,0.5-0.05C21.314,77.11,21.415,77.327,21.481,77.628z M11.932,79.878c0.033-0.033,0.383-0.384,1.05-1.051  c1.5-1.533,3.083-2.866,4.75-4c1.733-1.133,3.116-1.8,4.15-2l-5.4,4.15c-2.1,1.633-3.733,3.166-4.9,4.6  C11.448,80.911,11.564,80.345,11.932,79.878z"></path></svg>