<svg height='100px' width='100px'  fill="#000000" xmlns="http://www.w3.org/2000/svg" viewBox="0 0 60 60" x="0px" y="0px"><defs><style>.cls-1{fill:none;stroke:#000000;stroke-linecap:round;stroke-linejoin:round;stroke-width:2px;}</style></defs><title>Movies - Outline - 099 - Hal</title><circle class="cls-1" cx="30" cy="30" r="29"></circle><path class="cls-1" d="M30,55A25,25,0,1,1,55,30,25.02817,25.02817,0,0,1,30,55Z"></path><path class="cls-1" d="M16.413,14a21.06447,21.06447,0,0,1,4.58689-2.972"></path><path class="cls-1" d="M39.0001,11.028A21.06447,21.06447,0,0,1,43.587,14"></path><path class="cls-1" d="M24.99995,9.60146a21.08383,21.08383,0,0,1,10.00011,0"></path><path class="cls-1" d="M30,46A16,16,0,1,1,46,30,16.01853,16.01853,0,0,1,30,46Z"></path><circle class="cls-1" cx="30" cy="30" r="5"></circle><line class="cls-1" x1="30" y1="30" x2="30" y2="30"></line></svg>