<?xml version="1.0" encoding="UTF-8"?>
<svg width="700pt" height="700pt" version="1.1" viewBox="0 0 700 700" xmlns="http://www.w3.org/2000/svg">
 <g>
  <path d="m198.16 698.19c1.7773 0.96094 3.7031 1.4297 5.6016 1.4297 2.6836 0 5.3359-0.90234 7.4648-2.7109l147.18-122.76 71.723 71.723c3.0898 3.1211 7.7578 4.2305 12.047 2.8008 4.2305-1.4297 7.2344-5.1641 7.7891-9.5977l14.059-111.48 149.36 70.758c1.6055 0.75781 3.2969 1.1367 4.9883 1.1367 0.23438 0 0.4375 0.027343 0.58203 0 6.4766 0 11.668-5.2227 11.668-11.668 0-3.3242-1.3984-6.3008-3.5859-8.4297l-75.277-134.08 112.52-9.2148c4.7539-0.37891 8.7773-3.6172 10.207-8.1367 1.4297-4.5508-0.058593-9.4805-3.7344-12.512l-98.699-81.141 89.211-98.062c3.1484-3.4727 3.9375-8.5156 1.9258-12.773-1.9844-4.2578-6.3867-6.8242-10.996-6.7383l-126.46 4.7539 51.363-181.68c1.2539-4.4336-0.20312-9.1875-3.7617-12.133-3.5273-2.9453-8.457-3.5273-12.602-1.5156l-144.9 70.934-75.57-92.457c-2.625-3.2656-6.8555-4.668-10.996-4.1406-4.1406 0.69922-7.582 3.5859-9.0117 7.5234l-47.078 129.61-132.12-59.18c-4.1719-1.8672-9.1875-1.1094-12.66 2.043-3.4102 3.1484-4.6367 8.0508-3.1211 12.453l54.336 157.15-144.75 22.488c-4.4062 0.67188-8.0508 3.8242-9.3633 8.1094-1.3125 4.2578-0.058594 8.9258 3.2383 11.961l109.79 101.7-87.184 142.89c-2.5391 4.1992-2.2148 9.5078 0.81641 13.359 3.0352 3.8203 8.0508 5.3359 12.805 3.8203l150.59-49.875-23.332 181.94c-0.64062 4.7539 1.75 9.3906 5.9531 11.695zm-110.34-175.93 75.602-123.9c2.8867-4.7539 2.0117-10.879-2.043-14.641l-99.078-91.789 134.72-20.941c3.4141-0.52344 6.418-2.5391 8.1953-5.5117 1.7773-2.9766 2.1289-6.5625 0.98828-9.832l-50.078-144.87 118.97 53.289c2.9453 1.2852 6.3555 1.3711 9.3008 0.085938 2.9766-1.2539 5.3086-3.7031 6.418-6.7383l44.391-122.15 68.426 83.738c3.4414 4.2305 9.332 5.4844 14.145 3.0898l129.73-63.523-48.59 171.96c-1.0195 3.5859-0.26172 7.4375 2.043 10.383 2.3047 2.9453 5.9219 4.668 9.5977 4.4609l114.71-4.3164-78.75 86.566c-2.1289 2.3633-3.2383 5.4844-3.0352 8.6914 0.26172 3.1797 1.7773 6.125 4.2578 8.168l85.926 70.641-101.96 8.3711c-3.9648 0.32031-7.4961 2.625-9.3633 6.125-1.8359 3.5273-1.8086 7.7305 0.14453 11.199l67.754 120.72-130.81-61.98c-3.3242-1.6055-7.3203-1.4883-10.586 0.32031-3.2656 1.8086-5.4844 5.0469-5.9492 8.7773l-13.098 103.83-62.418-62.418c-4.2891-4.2578-11.141-4.5781-15.723-0.69922l-132.54 110.57 21.934-170.8c0.52344-3.9961-1.0508-7.9336-4.1406-10.5-2.1289-1.75-4.7539-2.6523-7.4375-2.6523-1.2266 0-2.4805 0.17578-3.6758 0.58203z"/>
  <path d="m290.24 519.55c1.2852 0.46484 2.625 0.67188 3.9375 0.67188 2.8867 0 5.7148-1.0781 7.9023-3.0898l124.69-115.36c3.2969-3.0352 4.5508-7.7305 3.207-12.016-1.3398-4.2891-5.0156-7.4375-9.4805-8.0781l-23.539-3.3828 30.102-74.84c1.3711-3.3828 1.0508-7.2344-0.81641-10.355-1.8672-3.1211-5.1055-5.2227-8.75-5.6016l-23.887-2.5977 40.191-114.54c1.8359-5.3672-0.37891-11.289-5.3359-14.027-4.9297-2.7109-11.199-1.5742-14.758 2.8281l-138.95 171.44c-2.6836 3.2969-3.3555 7.7891-1.7773 11.695 1.6055 3.9375 5.1914 6.707 9.3906 7.2344l28.086 3.4727-6.0078 17.703-27.27-1.3125c-3.5273-0.37891-6.7969 1.1953-9.1602 3.7617-2.332 2.5664-3.4141 6.0391-2.9766 9.4805l17.559 127.52c0.61328 4.3164 3.5586 7.9297 7.6445 9.3906zm21.875-125.1c5.1641 0.35156 9.9453-2.9766 11.609-7.9023l13.445-39.609c1.1094-3.3242 0.67188-6.9727-1.168-9.9453-1.8672-2.9766-4.9883-4.957-8.457-5.3945l-21.438-2.6523 83.445-102.93-22.809 65.012c-1.168 3.3555-0.73047 7.0859 1.168 10.09 1.8672 3.0352 5.0742 4.9883 8.6055 5.3672l23.188 2.5078-29.895 74.316c-1.3398 3.3242-1.0781 7.0859 0.69922 10.18 1.7773 3.0898 4.8984 5.2227 8.457 5.7148l14 2.0117-90.301 83.535-12.602-91.41z"/>
 </g>
</svg>
